<svg xmlns="http://www.w3.org/2000/svg" id="Layer_1" width="128" height="128" data-name="Layer 1" viewBox="0 0 240 156.83"><defs><style>.cls-1{fill:#fff}.cls-2{fill:#e5e5e5}.cls-3{fill:#d8d8d8}.cls-4{fill:#f4f4f4}</style></defs><title>responsive-256</title><rect width="34.77" height="3.86" x="96.57" y="150.65" class="cls-1" rx="1.23" ry="1.23"/><rect width="21.25" height="21.25" x="104.3" y="129.41" class="cls-2"/><path d="M114.16,179s18,7.81,19.38,19.23l-.13-19.08Z" class="cls-3" transform="translate(-8 -49.58)"/><rect width="227.91" height="129.41" class="cls-1" rx="4" ry="4"/><rect width="218.25" height="117.82" x="4.83" y="5.79" class="cls-2"/><rect width="52.05" height="82.99" x="4.83" y="68.04" class="cls-1" rx="2" ry="2"/><rect width="43.13" height="69.69" x="9.29" y="74.68" class="cls-2"/><path d="M139,92.12h94.37a4,4,0,0,1,4,4V152a4.79,4.79,0,0,1-4.79,4.79H141.23A6.22,6.22,0,0,1,135,150.6V96.12A4,4,0,0,1,139,92.12Z" class="cls-1"/><rect width="91.74" height="51.18" x="140.81" y="99.84" class="cls-2"/><path d="M132.39,150.52H240a0,0,0,0,1,0,0v4.36a1.93,1.93,0,0,1-1.93,1.93H134.32a1.93,1.93,0,0,1-1.93-1.93v-4.36A0,0,0,0,1,132.39,150.52Z" class="cls-1"/><path d="M60.42,139.32s-6.36,48.75-27.17,54.61l27.38,0Z" class="cls-3" transform="translate(-8 -49.58)"/><rect width="26.07" height="53.84" x="4.83" y="99.84" class="cls-1" rx="2" ry="2"/><rect width="26.07" height="40.34" x="4.83" y="106.59" class="cls-2"/><path d="M248,200.29s-11.8,4.36-93.69,6.12h92.42a1.1,1.1,0,0,0,1.27-1.24Z" class="cls-4" transform="translate(-8 -49.58)"/></svg>